<?xml version="1.0" encoding="UTF-8"?>
<!DOCTYPE svg PUBLIC "-//W3C//DTD SVG 1.0//EN" "http://www.w3.org/TR/2001/REC-SVG-20010904/DTD/svg10.dtd">
<!-- Creator: CorelDRAW X7 -->
<svg xmlns="http://www.w3.org/2000/svg" xml:space="preserve" width="5.2334mm" height="4.6281mm" version="1.0" shape-rendering="geometricPrecision" text-rendering="geometricPrecision" image-rendering="optimizeQuality" fill-rule="evenodd" clip-rule="evenodd"
viewBox="0 0 523 463"
 xmlns:xlink="http://www.w3.org/1999/xlink">
 <g id="Layer_x0020_1">
  <metadata id="CorelCorpID_0Corel-Layer"/>
  <path fill="#332C2B" d="M494 405c16,0 29,13 29,29 0,16 -13,29 -29,29l0 0 0 0 -465 0 0 0c-16,0 -29,-13 -29,-29 0,-16 13,-29 29,-29l0 0 465 0 0 0zm-465 -347c-16,0 -29,-13 -29,-29 0,-16 13,-29 29,-29l0 0 465 0 0 0c16,0 29,13 29,29 0,16 -13,29 -29,29l0 0 0 0 -465 0 0 0zm465 202l-465 0 0 0c-16,0 -29,-13 -29,-29 0,-16 13,-29 29,-29l0 0 465 0 0 0c16,0 29,13 29,29 0,16 -13,29 -29,29l0 0 0 0z"/>
 </g>
</svg>
