<?xml version="1.0" encoding="UTF-8"?>
<!DOCTYPE svg PUBLIC "-//W3C//DTD SVG 1.0//EN" "http://www.w3.org/TR/2001/REC-SVG-20010904/DTD/svg10.dtd">
<!-- Creator: CorelDRAW X7 -->
<svg xmlns="http://www.w3.org/2000/svg" xml:space="preserve" width="26.378mm" height="26.53mm" version="1.0" shape-rendering="geometricPrecision" text-rendering="geometricPrecision" image-rendering="optimizeQuality" fill-rule="evenodd" clip-rule="evenodd"
viewBox="0 0 493 496"
 xmlns:xlink="http://www.w3.org/1999/xlink">
 <g id="Layer_x0020_1">
  <metadata id="CorelCorpID_0Corel-Layer"/>
  <path fill="#FEFEFE" d="M246 0c128,0 234,97 247,221l-74 0c-12,-84 -85,-148 -173,-148 -87,0 -160,64 -173,148l-73 0c13,-124 119,-221 246,-221zm0 167c45,0 81,36 81,81 0,45 -36,81 -81,81 -44,0 -81,-36 -81,-81 0,-45 37,-81 81,-81zm158 54l-32 0c-12,-58 -64,-102 -126,-102 -61,0 -113,44 -125,102l-32 0c13,-75 78,-133 157,-133 79,0 145,58 158,133zm89 53c-13,125 -119,222 -247,222 -127,0 -233,-97 -246,-222l73 0c13,84 86,149 173,149 88,0 161,-65 173,-149l74 0zm-404 0l32 0c12,59 64,102 125,102 62,0 114,-43 126,-102l32 0c-13,76 -79,133 -158,133 -79,0 -144,-57 -157,-133z"/>
 </g>
</svg>
